<svg width="18" height="18" viewBox="0 0 18 18" fill="none" xmlns="http://www.w3.org/2000/svg">
<path d="M8.98984 17.6701C7.27586 17.6701 5.74184 17.2919 4.37923 16.527C3.02518 15.7621 1.95394 14.7136 1.17408 13.3729C0.394215 12.0322 0 10.511 0 8.81785C0 7.12476 0.394215 5.57776 1.17408 4.26282C1.95394 2.94788 3.01661 1.90796 4.36209 1.14306C5.70756 0.378154 7.25015 0 8.98984 0C10.7295 0 12.2378 0.378153 13.6005 1.12587C14.9545 1.87358 16.0172 2.9135 16.7885 4.24563C17.5598 5.57776 17.9454 7.09897 17.9454 8.81785C17.9454 10.5367 17.5598 12.0579 16.7885 13.3901C16.0172 14.7222 14.9545 15.7621 13.6005 16.527C12.2464 17.2919 10.7038 17.6701 8.98984 17.6701ZM8.98984 14.9285C10.0954 14.9285 11.0895 14.6792 11.9722 14.1808C12.8549 13.6823 13.5405 12.9689 14.0375 12.0408C14.5346 11.1126 14.7831 10.0469 14.7831 8.82645C14.7831 7.60604 14.5346 6.51455 14.0375 5.61214C13.5405 4.70973 12.8463 4.00499 11.9722 3.50652C11.0895 3.00804 10.0954 2.7588 8.98984 2.7588C7.88432 2.7588 6.89878 3.00804 6.02465 3.50652C5.15909 4.00499 4.46492 4.70973 3.94216 5.61214C3.41939 6.51455 3.1623 7.58885 3.1623 8.82645C3.1623 10.064 3.41939 11.1212 3.94216 12.0408C4.46492 12.9689 5.15909 13.6823 6.02465 14.1808C6.89021 14.6792 7.88432 14.9285 8.98984 14.9285Z" fill="white"/>
</svg>
